<svg xmlns="http://www.w3.org/2000/svg" xmlns:xlink="http://www.w3.org/1999/xlink" contentStyleType="text/css" data-diagram-type="DESCRIPTION" height="406px" preserveAspectRatio="none" style="width:361px;height:406px;background:#1B1B1B;" version="1.1" viewBox="0 0 361 406" width="361px" zoomAndPan="magnify"><defs/><g><rect fill="#1B1B1B" height="406" style="stroke:none;stroke-width:1;" width="361" x="0" y="0"/><!--cluster Kluis--><g class="cluster" data-entity="Kluis" data-source-line="3" data-uid="ent0003" id="cluster_Kluis"><path d="M114.52,6 L154.2661,6 A3.75,3.75 0 0 1 156.7661,8.5 L163.7661,28.2969 L351.88,28.2969 A2.5,2.5 0 0 1 354.38,30.7969 L354.38,396.5 A2.5,2.5 0 0 1 351.88,399 L114.52,399 A2.5,2.5 0 0 1 112.02,396.5 L112.02,8.5 A2.5,2.5 0 0 1 114.52,6" fill="none" style="stroke:#FFFFFF;stroke-width:1.5;"/><line style="stroke:#FFFFFF;stroke-width:1.5;" x1="112.02" x2="163.7661" y1="28.2969" y2="28.2969"/><text fill="#FFFFFF" font-family="sans-serif" font-size="14" font-weight="bold" lengthAdjust="spacing" textLength="38.7461" x="116.02" y="20.9951">Kluis</text></g><!--entity UC1--><g class="entity" data-entity="UC1" data-source-line="4" data-uid="ent0004" id="entity_UC1"><ellipse cx="233.2" cy="364" fill="#313139" rx="83.05" ry="19.01" style="stroke:#E7E7E7;stroke-width:0.5;"/><text fill="#FFFFFF" font-family="sans-serif" font-size="14" lengthAdjust="spacing" textLength="137.8125" x="164.2937" y="368.6484">UC1: Code instellen</text></g><!--entity UC2--><g class="entity" data-entity="UC2" data-source-line="5" data-uid="ent0005" id="entity_UC2"><ellipse cx="233.1994" cy="292.0019" fill="#313139" rx="78.9094" ry="18.1819" style="stroke:#E7E7E7;stroke-width:0.5;"/><text fill="#FFFFFF" font-family="sans-serif" font-size="14" lengthAdjust="spacing" textLength="128.0986" x="169.1501" y="296.6503">UC2: Kluis openen</text></g><!--entity UC3--><g class="entity" data-entity="UC3" data-source-line="6" data-uid="ent0006" id="entity_UC3"><ellipse cx="233.1978" cy="214.9956" fill="#313139" rx="105.1778" ry="23.4356" style="stroke:#E7E7E7;stroke-width:0.5;"/><text fill="#FFFFFF" font-family="sans-serif" font-size="14" lengthAdjust="spacing" textLength="187.4072" x="139.4941" y="219.644">UC3: Voorwerpen plaatsen</text></g><!--entity UC4--><g class="entity" data-entity="UC4" data-source-line="7" data-uid="ent0007" id="entity_UC4"><ellipse cx="233.2005" cy="134.0001" fill="#313139" rx="101.0505" ry="22.6101" style="stroke:#E7E7E7;stroke-width:0.5;"/><text fill="#FFFFFF" font-family="sans-serif" font-size="14" lengthAdjust="spacing" textLength="178.3701" x="144.0154" y="138.6485">UC4: Voorwerpen pakken</text></g><!--entity UC5--><g class="entity" data-entity="UC5" data-source-line="8" data-uid="ent0008" id="entity_UC5"><ellipse cx="233.2027" cy="59.0005" fill="#313139" rx="76.6027" ry="17.7205" style="stroke:#E7E7E7;stroke-width:0.5;"/><text fill="#FFFFFF" font-family="sans-serif" font-size="14" lengthAdjust="spacing" textLength="122.5957" x="171.9048" y="63.649">UC5: Kluis sluiten</text></g><!--entity e--><g class="entity" data-entity="e" data-source-line="2" data-uid="ent0002" id="entity_e"><ellipse cx="37.0112" cy="185.35" fill="#313139" rx="8" ry="8" style="stroke:#E7E7E7;stroke-width:0.5;"/><path d="M37.0112,193.35 L37.0112,220.35 M24.0112,201.35 L50.0112,201.35 M37.0112,220.35 L24.0112,235.35 M37.0112,220.35 L50.0112,235.35" fill="none" style="stroke:#E7E7E7;stroke-width:0.5;"/><text fill="#FFFFFF" font-family="sans-serif" font-size="14" lengthAdjust="spacing" textLength="62.0225" x="6" y="249.8451">Eigenaar</text></g><!--link e to UC1--><g class="link" data-entity-1="e" data-entity-2="UC1" data-source-line="10" data-uid="lnk9" id="link_e_UC1"><path d="M51.69,253.48 C62.35,278.17 79.48,309.04 104.02,328 C120.48,340.72 135.4124,347.4047 155.3724,352.7247" fill="none" id="e-to-UC1" style="stroke:#E7E7E7;stroke-width:1;"/><polygon fill="#E7E7E7" points="161.17,354.27,153.5038,348.0871,156.3387,352.9823,151.4434,355.8172,161.17,354.27" style="stroke:#E7E7E7;stroke-width:1;"/></g><!--link e to UC2--><g class="link" data-entity-1="e" data-entity-2="UC2" data-source-line="11" data-uid="lnk10" id="link_e_UC2"><path d="M68.25,236.27 C79.16,243.27 91.8,250.62 104.02,256 C126.34,265.83 146.2212,272.1675 168.7212,277.9875" fill="none" id="e-to-UC2" style="stroke:#E7E7E7;stroke-width:1;"/><polygon fill="#E7E7E7" points="174.53,279.49,166.8185,273.3636,169.6893,278.2379,164.8151,281.1087,174.53,279.49" style="stroke:#E7E7E7;stroke-width:1;"/></g><!--link e to UC3--><g class="link" data-entity-1="e" data-entity-2="UC3" data-source-line="12" data-uid="lnk11" id="link_e_UC3"><path d="M68.35,215 C84.67,215 99.87,215 121.57,215" fill="none" id="e-to-UC3" style="stroke:#E7E7E7;stroke-width:1;"/><polygon fill="#E7E7E7" points="127.57,215,118.57,211,122.57,215,118.57,219,127.57,215" style="stroke:#E7E7E7;stroke-width:1;"/></g><!--link e to UC4--><g class="link" data-entity-1="e" data-entity-2="UC4" data-source-line="13" data-uid="lnk12" id="link_e_UC4"><path d="M68.34,193.92 C79.25,186.95 91.88,179.56 104.02,174 C123.52,165.08 139.8207,159.1496 160.0607,152.9796" fill="none" id="e-to-UC4" style="stroke:#E7E7E7;stroke-width:1;"/><polygon fill="#E7E7E7" points="165.8,151.23,156.0247,150.0282,161.0173,152.688,158.3575,157.6805,165.8,151.23" style="stroke:#E7E7E7;stroke-width:1;"/></g><!--link e to UC5--><g class="link" data-entity-1="e" data-entity-2="UC5" data-source-line="14" data-uid="lnk13" id="link_e_UC5"><path d="M49.98,176.35 C60.22,149.51 77.55,114.93 104.02,94 C121.21,80.41 137.4699,73.5079 158.4399,68.4079" fill="none" id="e-to-UC5" style="stroke:#E7E7E7;stroke-width:1;"/><polygon fill="#E7E7E7" points="164.27,66.99,154.5796,65.2301,159.4116,68.1716,156.4702,73.0035,164.27,66.99" style="stroke:#E7E7E7;stroke-width:1;"/></g><!--SRC=[LSwz3i8m30JWFKznOkz0VvOEB1KJC-nMQahKAAuILmo8TwU06YcBTRA-a-tvhb11TDD3CRh8Lfq4GrObukmc3aGHbC1c8JlJnBZurQMN0TR4bXBZS1sEFGOP6IuaPUyv7BwTRL-okl-t8Gk7ZEeIDJrk8l79SKDOF96cR9lIjgMbUSwoBMMtdqxRrAmwypQCgZhzdjrJdLEJKvjJzm40]--></g></svg>